<svg xmlns="http://www.w3.org/2000/svg" width="154.849" height="21.013" viewBox="0 0 154.849 21.013">
  <path id="notion-rhino-logo-white" d="M1.775,0V-19.644H6.266l6.2,9.944q.473.765.964,1.658t1,1.987q.506,1.094,1.015,2.466h-.413q-.09-1.1-.168-2.332t-.126-2.371q-.049-1.137-.049-1.922v-9.43H18.8V0H14.3L8.668-9.016q-.623-1.02-1.153-1.972T6.413-13.1L5.047-15.862h.511q.087,1.421.165,2.731t.125,2.369q.047,1.058.047,1.735V0ZM28.139.288A7.433,7.433,0,0,1,24.3-.665a6.41,6.41,0,0,1-2.5-2.663,8.613,8.613,0,0,1-.876-3.978,8.674,8.674,0,0,1,.876-4,6.406,6.406,0,0,1,2.5-2.666,7.433,7.433,0,0,1,3.837-.953,7.423,7.423,0,0,1,3.839.953A6.415,6.415,0,0,1,34.47-11.3a8.673,8.673,0,0,1,.876,4,8.612,8.612,0,0,1-.876,3.978A6.419,6.419,0,0,1,31.978-.665,7.423,7.423,0,0,1,28.139.288Zm0-3.112A2.678,2.678,0,0,0,29.9-3.411a3.531,3.531,0,0,0,1.064-1.6,6.981,6.981,0,0,0,.355-2.3,6.984,6.984,0,0,0-.355-2.313,3.5,3.5,0,0,0-1.064-1.6,2.69,2.69,0,0,0-1.765-.583,2.682,2.682,0,0,0-1.764.583,3.514,3.514,0,0,0-1.062,1.593,6.976,6.976,0,0,0-.355,2.316,6.979,6.979,0,0,0,.355,2.3,3.54,3.54,0,0,0,1.062,1.6A2.67,2.67,0,0,0,28.139-2.824ZM44.786-14.739v3.013H36.041v-3.013Zm-6.715-3.507h3.953V-4.315a1.475,1.475,0,0,0,.313,1.038,1.359,1.359,0,0,0,1.028.334A4.947,4.947,0,0,0,44-3q.406-.056.618-.109l.566,2.965a7.842,7.842,0,0,1-1.311.273,10.647,10.647,0,0,1-1.246.077A4.837,4.837,0,0,1,39.242-.87a3.994,3.994,0,0,1-1.171-3.1ZM47.4,0V-14.739h3.955V0ZM49.38-16.664a2.156,2.156,0,0,1-1.529-.593,1.9,1.9,0,0,1-.633-1.437,1.9,1.9,0,0,1,.633-1.437,2.156,2.156,0,0,1,1.529-.593,2.192,2.192,0,0,1,1.536.587,1.883,1.883,0,0,1,.639,1.444,1.889,1.889,0,0,1-.639,1.437A2.179,2.179,0,0,1,49.38-16.664ZM60.819.288a7.433,7.433,0,0,1-3.837-.953,6.41,6.41,0,0,1-2.5-2.663,8.613,8.613,0,0,1-.876-3.978,8.674,8.674,0,0,1,.876-4,6.406,6.406,0,0,1,2.5-2.666,7.433,7.433,0,0,1,3.837-.953,7.423,7.423,0,0,1,3.839.953A6.415,6.415,0,0,1,67.15-11.3a8.673,8.673,0,0,1,.876,4,8.612,8.612,0,0,1-.876,3.978A6.419,6.419,0,0,1,64.658-.665,7.423,7.423,0,0,1,60.819.288Zm0-3.112a2.678,2.678,0,0,0,1.765-.587,3.531,3.531,0,0,0,1.064-1.6A6.981,6.981,0,0,0,64-7.32a6.984,6.984,0,0,0-.355-2.313,3.5,3.5,0,0,0-1.064-1.6,2.69,2.69,0,0,0-1.765-.583,2.682,2.682,0,0,0-1.764.583,3.514,3.514,0,0,0-1.062,1.593,6.976,6.976,0,0,0-.355,2.316,6.979,6.979,0,0,0,.355,2.3,3.54,3.54,0,0,0,1.062,1.6A2.67,2.67,0,0,0,60.819-2.824Zm13.276-5.71V0H70.141V-14.739h3.733l.063,3.679H73.7a6.018,6.018,0,0,1,1.762-2.854,4.527,4.527,0,0,1,3.048-1.01,5.191,5.191,0,0,1,2.671.666,4.52,4.52,0,0,1,1.768,1.91,6.512,6.512,0,0,1,.63,2.973V0H79.626V-8.686a3.088,3.088,0,0,0-.708-2.154,2.511,2.511,0,0,0-1.959-.781,2.965,2.965,0,0,0-1.482.365A2.562,2.562,0,0,0,74.462-10.2,3.5,3.5,0,0,0,74.095-8.534ZM86.315,0V-19.644h7.663a8.374,8.374,0,0,1,3.806.792,5.582,5.582,0,0,1,2.394,2.23,6.656,6.656,0,0,1,.825,3.37,6.416,6.416,0,0,1-.836,3.347,5.428,5.428,0,0,1-2.426,2.149,9.017,9.017,0,0,1-3.856.747h-5.19v-3.26h4.552a5.227,5.227,0,0,0,2.025-.337,2.432,2.432,0,0,0,1.189-1,3.184,3.184,0,0,0,.392-1.646,3.317,3.317,0,0,0-.392-1.677,2.5,2.5,0,0,0-1.192-1.039,5.016,5.016,0,0,0-2.034-.357H90.344V0ZM97.244,0,92.47-8.939h4.359L101.711,0Zm10.539-8.534V0H103.83V-19.644h3.882v8.584h-.323a6.018,6.018,0,0,1,1.762-2.854,4.527,4.527,0,0,1,3.048-1.01,5.207,5.207,0,0,1,2.674.666,4.515,4.515,0,0,1,1.771,1.91,6.511,6.511,0,0,1,.63,2.973V0h-3.96V-8.686a3.088,3.088,0,0,0-.708-2.154,2.511,2.511,0,0,0-1.959-.781,2.965,2.965,0,0,0-1.482.365A2.562,2.562,0,0,0,108.15-10.2,3.5,3.5,0,0,0,107.783-8.534ZM119.918,0V-14.739h3.955V0ZM121.9-16.664a2.156,2.156,0,0,1-1.529-.593,1.9,1.9,0,0,1-.633-1.437,1.9,1.9,0,0,1,.633-1.437,2.156,2.156,0,0,1,1.529-.593,2.192,2.192,0,0,1,1.536.587,1.883,1.883,0,0,1,.639,1.444,1.889,1.889,0,0,1-.639,1.437A2.179,2.179,0,0,1,121.9-16.664Zm8.8,8.13V0h-3.953V-14.739h3.733l.063,3.679H130.3a6.018,6.018,0,0,1,1.762-2.854,4.527,4.527,0,0,1,3.048-1.01,5.191,5.191,0,0,1,2.671.666,4.52,4.52,0,0,1,1.768,1.91,6.512,6.512,0,0,1,.63,2.973V0h-3.953V-8.686a3.088,3.088,0,0,0-.708-2.154,2.511,2.511,0,0,0-1.959-.781,2.965,2.965,0,0,0-1.482.365,2.562,2.562,0,0,0-1.015,1.053A3.5,3.5,0,0,0,130.691-8.534ZM149.418.288a7.433,7.433,0,0,1-3.837-.953,6.41,6.41,0,0,1-2.5-2.663,8.613,8.613,0,0,1-.876-3.978,8.674,8.674,0,0,1,.876-4,6.406,6.406,0,0,1,2.5-2.666,7.433,7.433,0,0,1,3.837-.953,7.423,7.423,0,0,1,3.839.953,6.415,6.415,0,0,1,2.492,2.666,8.673,8.673,0,0,1,.876,4,8.612,8.612,0,0,1-.876,3.978,6.419,6.419,0,0,1-2.492,2.663A7.423,7.423,0,0,1,149.418.288Zm0-3.112a2.678,2.678,0,0,0,1.765-.587,3.53,3.53,0,0,0,1.064-1.6,6.981,6.981,0,0,0,.355-2.3,6.984,6.984,0,0,0-.355-2.313,3.5,3.5,0,0,0-1.064-1.6,2.69,2.69,0,0,0-1.765-.583,2.682,2.682,0,0,0-1.764.583,3.514,3.514,0,0,0-1.062,1.593,6.976,6.976,0,0,0-.355,2.316,6.98,6.98,0,0,0,.355,2.3,3.541,3.541,0,0,0,1.062,1.6A2.67,2.67,0,0,0,149.418-2.824Z" transform="translate(-1.775 20.725)" fill="#fff"/>
</svg>
