<svg xmlns="http://www.w3.org/2000/svg" width="52" height="52" viewBox="0 0 52 52">
  <g id="notion-rhino-icon-white" transform="translate(2671 -2020)">
    <path id="Path_50" data-name="Path 50" d="M8,0H44a8,8,0,0,1,8,8V44a8,8,0,0,1-8,8H8a8,8,0,0,1-8-8V8A8,8,0,0,1,8,0Z" transform="translate(-2671 2020)" fill="#f6f5f4"/>
    <g id="Group_24" data-name="Group 24" transform="translate(62.055 -1)">
      <path id="Path_49" data-name="Path 49" d="M-2710.3,2065.223c8.192,1.084,5.426-5.215,13.6,0,4.933-2.819,2.126-8.483,2.6-10.029,5.744-8.147,0-27.93,0-27.93s-7.012,21.349-10.9,22.149-2.854-11.5-2.854-11.5-4.168,9.669-5.779,10.391-9.828-7.718-13.5-3.612c-5.908,6.6-.712,9.154-.712,15.108S-2718.492,2064.139-2710.3,2065.223Z" transform="translate(3.698 -0.321)" fill="#373530"/>
      <circle id="Ellipse_4" data-name="Ellipse 4" cx="2.5" cy="2.5" r="2.5" transform="translate(-2719 2052)" fill="#fff"/>
    </g>
  </g>
</svg>
