<svg xmlns="http://www.w3.org/2000/svg" width="412.932" height="52" viewBox="0 0 412.932 52">
  <g id="notion-rhino-logo-black" transform="translate(2778 -1917)">
    <path id="notion-rhino-logo-dark" d="M1.775,24.9V-18.344h9.888L25.319,3.55Q26.36,5.235,27.441,7.2t2.2,4.375q1.115,2.409,2.234,5.43h-.909q-.2-2.418-.369-5.135t-.278-5.221q-.107-2.5-.107-4.231V-18.344h9.057V24.9H29.35L16.951,5.055Q15.579,2.81,14.412.714T11.986-3.935q-1.26-2.552-3.007-6.084H10.1q.192,3.128.363,6.013t.275,5.215q.1,2.33.1,3.82V24.9Zm58.046.634a16.366,16.366,0,0,1-8.449-2.1,14.114,14.114,0,0,1-5.495-5.863A18.963,18.963,0,0,1,43.95,8.82a19.1,19.1,0,0,1,1.928-8.8,14.1,14.1,0,0,1,5.495-5.87,16.366,16.366,0,0,1,8.449-2.1,16.344,16.344,0,0,1,8.453,2.1A14.124,14.124,0,0,1,73.76.015a19.1,19.1,0,0,1,1.928,8.8,18.961,18.961,0,0,1-1.928,8.758,14.133,14.133,0,0,1-5.486,5.863A16.344,16.344,0,0,1,59.821,25.539Zm0-6.852A5.9,5.9,0,0,0,63.708,17.4a7.773,7.773,0,0,0,2.343-3.533,15.37,15.37,0,0,0,.781-5.074A15.377,15.377,0,0,0,66.051,3.7,7.714,7.714,0,0,0,63.708.182a6.524,6.524,0,0,0-7.77,0A7.738,7.738,0,0,0,53.6,3.689a15.358,15.358,0,0,0-.781,5.1,15.366,15.366,0,0,0,.781,5.074A7.8,7.8,0,0,0,55.938,17.4,5.878,5.878,0,0,0,59.821,18.687ZM96.472-7.547V-.914H77.218V-7.547ZM81.687-15.268h8.7V15.405a3.248,3.248,0,0,0,.69,2.285,2.991,2.991,0,0,0,2.264.735,10.893,10.893,0,0,0,1.4-.124q.895-.124,1.361-.24l1.246,6.528a17.266,17.266,0,0,1-2.886.6,23.441,23.441,0,0,1-2.744.169q-4.883,0-7.461-2.369t-2.579-6.816ZM102.233,24.9V-7.547h8.708V24.9Zm4.354-36.689a4.746,4.746,0,0,1-3.367-1.306,4.178,4.178,0,0,1-1.393-3.164,4.178,4.178,0,0,1,1.393-3.164,4.746,4.746,0,0,1,3.367-1.306,4.827,4.827,0,0,1,3.382,1.292,4.145,4.145,0,0,1,1.408,3.178,4.158,4.158,0,0,1-1.408,3.164A4.8,4.8,0,0,1,106.586-11.784Zm25.185,37.323a16.366,16.366,0,0,1-8.449-2.1,14.114,14.114,0,0,1-5.495-5.863A18.963,18.963,0,0,1,115.9,8.82a19.1,19.1,0,0,1,1.928-8.8,14.1,14.1,0,0,1,5.495-5.87,18.07,18.07,0,0,1,16.9,0,14.124,14.124,0,0,1,5.486,5.87,19.1,19.1,0,0,1,1.928,8.8,18.961,18.961,0,0,1-1.928,8.758,14.133,14.133,0,0,1-5.486,5.863A16.344,16.344,0,0,1,131.772,25.539Zm0-6.852a5.9,5.9,0,0,0,3.886-1.292A7.773,7.773,0,0,0,138,13.862a15.37,15.37,0,0,0,.781-5.074A15.377,15.377,0,0,0,138,3.7,7.714,7.714,0,0,0,135.658.182a6.524,6.524,0,0,0-7.77,0,7.738,7.738,0,0,0-2.338,3.507,15.358,15.358,0,0,0-.781,5.1,15.366,15.366,0,0,0,.781,5.074,7.8,7.8,0,0,0,2.338,3.533A5.878,5.878,0,0,0,131.772,18.687ZM161,6.115V24.9h-8.7V-7.547h8.219l.139,8.1h-.522a13.25,13.25,0,0,1,3.879-6.284,9.968,9.968,0,0,1,6.711-2.224,11.43,11.43,0,0,1,5.88,1.467,9.952,9.952,0,0,1,3.893,4.2,14.336,14.336,0,0,1,1.386,6.546V24.9h-8.7V5.781a6.8,6.8,0,0,0-1.559-4.742A5.529,5.529,0,0,0,167.306-.68a6.528,6.528,0,0,0-3.263.8,5.641,5.641,0,0,0-2.234,2.318A7.714,7.714,0,0,0,161,6.115ZM187.907,24.9V-18.344H204.78a18.436,18.436,0,0,1,8.379,1.743,12.289,12.289,0,0,1,5.271,4.91,14.654,14.654,0,0,1,1.817,7.42,14.127,14.127,0,0,1-1.841,7.37,11.95,11.95,0,0,1-5.342,4.732,19.852,19.852,0,0,1-8.49,1.645H193.147V2.3h10.021a11.509,11.509,0,0,0,4.458-.743,5.353,5.353,0,0,0,2.618-2.2,7.009,7.009,0,0,0,.864-3.624,7.3,7.3,0,0,0-.864-3.693,5.5,5.5,0,0,0-2.624-2.287,11.045,11.045,0,0,0-4.478-.785h-6.365V24.9Zm24.063,0L201.458,5.224h9.6L221.8,24.9Zm23.2-18.79V24.9h-8.7V-18.344h8.547V.554h-.712a13.25,13.25,0,0,1,3.879-6.284A9.968,9.968,0,0,1,244.9-7.953a11.465,11.465,0,0,1,5.887,1.467,9.941,9.941,0,0,1,3.9,4.2,14.335,14.335,0,0,1,1.387,6.546V24.9h-8.718V5.781a6.8,6.8,0,0,0-1.559-4.742A5.529,5.529,0,0,0,241.478-.68a6.528,6.528,0,0,0-3.263.8,5.641,5.641,0,0,0-2.234,2.318A7.714,7.714,0,0,0,235.174,6.115ZM261.89,24.9V-7.547H270.6V24.9Zm4.354-36.689a4.746,4.746,0,0,1-3.367-1.306,4.178,4.178,0,0,1-1.393-3.164,4.178,4.178,0,0,1,1.393-3.164,4.746,4.746,0,0,1,3.367-1.306,4.827,4.827,0,0,1,3.382,1.292,4.145,4.145,0,0,1,1.408,3.178,4.158,4.158,0,0,1-1.408,3.164A4.8,4.8,0,0,1,266.244-11.784Zm19.366,17.9V24.9h-8.7V-7.547h8.219l.139,8.1h-.522a13.249,13.249,0,0,1,3.879-6.284,9.968,9.968,0,0,1,6.711-2.224,11.429,11.429,0,0,1,5.88,1.467,9.952,9.952,0,0,1,3.893,4.2,14.336,14.336,0,0,1,1.386,6.546V24.9h-8.7V5.781a6.8,6.8,0,0,0-1.559-4.742A5.528,5.528,0,0,0,291.915-.68a6.528,6.528,0,0,0-3.263.8,5.642,5.642,0,0,0-2.234,2.318A7.714,7.714,0,0,0,285.61,6.115Zm41.23,19.424a16.366,16.366,0,0,1-8.449-2.1,14.114,14.114,0,0,1-5.495-5.863,18.963,18.963,0,0,1-1.928-8.758A19.1,19.1,0,0,1,312.9.015a14.1,14.1,0,0,1,5.495-5.87,18.07,18.07,0,0,1,16.9,0,14.124,14.124,0,0,1,5.486,5.87,19.1,19.1,0,0,1,1.928,8.8,18.961,18.961,0,0,1-1.928,8.758,14.133,14.133,0,0,1-5.486,5.863A16.344,16.344,0,0,1,326.84,25.539Zm0-6.852a5.9,5.9,0,0,0,3.886-1.292,7.773,7.773,0,0,0,2.343-3.533,15.37,15.37,0,0,0,.781-5.074A15.377,15.377,0,0,0,333.07,3.7,7.714,7.714,0,0,0,330.726.182a6.524,6.524,0,0,0-7.77,0,7.738,7.738,0,0,0-2.338,3.507,15.359,15.359,0,0,0-.781,5.1,15.367,15.367,0,0,0,.781,5.074,7.8,7.8,0,0,0,2.338,3.533A5.878,5.878,0,0,0,326.84,18.687Z" transform="translate(-2707.775 1940.593)" fill="#373530"/>
    <g id="Group_25" data-name="Group 25" transform="translate(-46 -103)">
      <rect id="Rectangle_51" data-name="Rectangle 51" width="52" height="52" rx="8" transform="translate(-2732 2020)" fill="#373530"/>
      <g id="Group_23" data-name="Group 23" transform="translate(0 -1)">
        <path id="Path_49" data-name="Path 49" d="M-2710.3,2065.223c8.192,1.084,5.426-5.215,13.6,0,4.933-2.819,2.126-8.483,2.6-10.029,5.744-8.147,0-27.93,0-27.93s-7.012,21.349-10.9,22.149-2.854-11.5-2.854-11.5-4.168,9.669-5.779,10.391-9.828-7.718-13.5-3.612c-5.908,6.6-.712,9.154-.712,15.108S-2718.492,2064.139-2710.3,2065.223Z" transform="translate(3.698 -0.321)" fill="#f6f5f4"/>
        <circle id="Ellipse_4" data-name="Ellipse 4" cx="2.5" cy="2.5" r="2.5" transform="translate(-2719 2052)" fill="#31302e"/>
      </g>
    </g>
  </g>
</svg>
